<svg width="120" height="120" viewBox="0 0 120 120" fill="none" xmlns="http://www.w3.org/2000/svg">
  <!-- Background Circle -->
  <circle cx="60" cy="60" r="60" fill="url(#gradient1)"/>

  <!-- Inner Circle -->
  <circle cx="60" cy="60" r="45" fill="#FFFFFF" opacity="0.2"/>

  <!-- T Letter -->
  <path d="M35 35h50v10H70v40h-10V45H35V35z" fill="white"/>

  <!-- B Letter -->
  <path d="M75 35h15c8.284 0 15 6.716 15 15s-6.716 15-15 15c8.284 0 15 6.716 15 15s-6.716 15-15 15H75V35zm10 25h5c2.761 0 5-2.239 5-5s-2.239-5-5-5h-5v10zm0 25h5c2.761 0 5-2.239 5-5s-2.239-5-5-5h-5v10z" fill="white"/>

  <!-- Gradient Definition -->
  <defs>
    <linearGradient id="gradient1" x1="0%" y1="0%" x2="100%" y2="100%">
      <stop offset="0%" style="stop-color:#FF6B6B;stop-opacity:1" />
      <stop offset="50%" style="stop-color:#4ECDC4;stop-opacity:1" />
      <stop offset="100%" style="stop-color:#45B7D1;stop-opacity:1" />
    </linearGradient>
  </defs>
</svg>