<svg width="32" height="32" viewBox="0 0 32 32" fill="none" xmlns="http://www.w3.org/2000/svg">
  <!-- Background with gradient similar to tocalifelogo -->
  <rect width="32" height="32" rx="8" fill="url(#bgGradient)"/>

  <!-- Character face base -->
  <circle cx="16" cy="18" r="8" fill="#FDB5A6"/>

  <!-- Hair (cyan/turquoise like the character) -->
  <path d="M8 14C8 10 11 8 16 8C21 8 24 10 24 14C24 12 22 10 20 10C18 10 16 11 16 13C16 11 14 10 12 10C10 10 8 12 8 14Z" fill="#4ECDC4"/>

  <!-- Hair details -->
  <ellipse cx="12" cy="11" rx="2" ry="3" fill="#5DD9D3"/>
  <ellipse cx="20" cy="11" rx="2" ry="3" fill="#5DD9D3"/>
  <ellipse cx="16" cy="9" rx="1.5" ry="2" fill="#5DD9D3"/>

  <!-- Eyes -->
  <circle cx="13" cy="16" r="1.5" fill="#2C3E50"/>
  <circle cx="19" cy="16" r="1.5" fill="#2C3E50"/>
  <circle cx="13.3" cy="15.7" r="0.4" fill="white"/>
  <circle cx="19.3" cy="15.7" r="0.4" fill="white"/>

  <!-- Mouth -->
  <path d="M16 19C17.5 19 18.5 20 18 21C17.5 22 16 21.5 16 21.5C16 21.5 14.5 22 14 21C13.5 20 14.5 19 16 19Z" fill="#E74C3C"/>

  <!-- Blush -->
  <ellipse cx="11" cy="18" rx="1" ry="0.8" fill="#FF9AA2" opacity="0.6"/>
  <ellipse cx="21" cy="18" rx="1" ry="0.8" fill="#FF9AA2" opacity="0.6"/>

  <!-- Small decorative elements -->
  <circle cx="6" cy="6" r="1" fill="#FFB3D9" opacity="0.7"/>
  <circle cx="26" cy="8" r="0.8" fill="#B8E6B8" opacity="0.7"/>
  <circle cx="28" cy="24" r="0.6" fill="#FFD3A5" opacity="0.7"/>

  <defs>
    <linearGradient id="bgGradient" x1="0%" y1="0%" x2="100%" y2="100%">
      <stop offset="0%" style="stop-color:#E8F5FF;stop-opacity:1" />
      <stop offset="30%" style="stop-color:#FFE8F5;stop-opacity:1" />
      <stop offset="70%" style="stop-color:#F5E8FF;stop-opacity:1" />
      <stop offset="100%" style="stop-color:#E8FFE8;stop-opacity:1" />
    </linearGradient>
  </defs>
</svg>